<svg xmlns="http://www.w3.org/2000/svg" xmlns:xlink="http://www.w3.org/1999/xlink" width="500" zoomAndPan="magnify" viewBox="0 0 375 374.999991" height="500" preserveAspectRatio="xMidYMid meet" version="1.0"><defs><g/></defs><rect x="-37.5" width="450" fill="#ffffff" y="-37.499999" height="449.999989" fill-opacity="1"/><rect x="-37.5" width="450" fill="#ffffff" y="-37.499999" height="449.999989" fill-opacity="1"/><g fill="#000000" fill-opacity="1"><g transform="translate(119.873635, 214.388679)"><g><path d="M 18.980469 0 L 37.085938 -45.261719 L 80.738281 -45.261719 L 83.953125 -37.085938 C 89.355469 -23.359375 91.105469 -11.242188 92.859375 0 L 100.886719 0 L 59.859375 -102.492188 L 45.261719 -102.492188 L 4.378906 0 Z M 58.839844 -100.011719 L 79.863281 -47.304688 L 37.816406 -47.304688 Z M 58.839844 -100.011719 "/></g></g></g><path stroke-linecap="butt" transform="matrix(0.787541, 0, 0, 0.787541, 153.334564, 61.684237)" fill="none" stroke-linejoin="miter" d="M 73.246893 207.002166 L 73.246893 68.934044 C 97.546208 68.934044 106.757032 72.1184 121.994324 80.15369 L 121.994324 66.141532 L 4.604676 66.141532 L 4.604676 80.15369 C 19.891569 72.1184 28.075662 68.934044 53.158665 68.934044 L 53.158665 207.002166 Z M 73.246893 207.002166 " stroke="#000000" stroke-width="7.274831" stroke-opacity="1" stroke-miterlimit="4"/><g fill="#ffffff" fill-opacity="1"><g transform="translate(153.334564, 224.705326)"><g><path d="M 57.6875 0 L 57.6875 -108.734375 C 76.808594 -108.734375 84.078125 -106.207031 96.089844 -99.882812 L 96.089844 -110.945312 L 3.636719 -110.945312 L 3.636719 -99.882812 C 15.644531 -106.207031 22.125 -108.734375 41.882812 -108.734375 L 41.882812 0 Z M 57.6875 0 "/></g></g></g><g fill="#000000" fill-opacity="1"><g transform="translate(106.347654, 259.788353)"><g><path d="M 13.53125 -1.109375 C 13.550781 -1.003906 13.5625 -0.898438 13.5625 -0.796875 C 13.5625 -0.691406 13.535156 -0.582031 13.484375 -0.46875 C 13.429688 -0.363281 13.359375 -0.285156 13.265625 -0.234375 C 13.085938 -0.078125 12.894531 0 12.6875 0 C 12.269531 0 11.988281 -0.1875 11.84375 -0.5625 L 10.546875 -3.75 L 3.40625 -3.75 L 2.140625 -0.5625 C 2.015625 -0.1875 1.765625 0 1.390625 0 C 1.023438 0 0.75 -0.15625 0.5625 -0.46875 C 0.5 -0.582031 0.46875 -0.679688 0.46875 -0.765625 C 0.46875 -0.859375 0.5 -0.972656 0.5625 -1.109375 L 5.34375 -12.84375 C 5.695312 -13.726562 6.101562 -14.234375 6.5625 -14.359375 C 6.675781 -14.367188 6.832031 -14.394531 7.03125 -14.4375 C 7.382812 -14.4375 7.648438 -14.359375 7.828125 -14.203125 C 8.109375 -13.984375 8.390625 -13.53125 8.671875 -12.84375 Z M 3.90625 -5.15625 L 10.078125 -5.15625 L 6.984375 -12.921875 Z M 3.90625 -5.15625 "/></g></g></g><g fill="#000000" fill-opacity="1"><g transform="translate(120.380822, 259.788353)"><g><path d="M 6.875 -0.578125 C 6.875 -0.046875 6.25 0.21875 5 0.21875 C 4.0625 0.21875 3.398438 -0.0390625 3.015625 -0.5625 C 2.585938 -1.101562 2.359375 -2 2.328125 -3.25 L 2.328125 -8.796875 L 1.15625 -8.796875 C 0.945312 -8.796875 0.78125 -8.863281 0.65625 -9 C 0.53125 -9.132812 0.46875 -9.269531 0.46875 -9.40625 C 0.46875 -9.550781 0.519531 -9.691406 0.625 -9.828125 C 0.738281 -9.972656 0.914062 -10.046875 1.15625 -10.046875 L 2.4375 -10.046875 L 2.53125 -12.90625 C 2.570312 -13.113281 2.671875 -13.273438 2.828125 -13.390625 C 2.984375 -13.503906 3.148438 -13.5625 3.328125 -13.5625 C 3.503906 -13.5625 3.65625 -13.507812 3.78125 -13.40625 C 3.90625 -13.300781 3.96875 -13.132812 3.96875 -12.90625 L 3.96875 -10.046875 L 5.796875 -10.046875 C 6.003906 -10.046875 6.164062 -9.972656 6.28125 -9.828125 C 6.394531 -9.691406 6.453125 -9.550781 6.453125 -9.40625 C 6.453125 -9.226562 6.394531 -9.082031 6.28125 -8.96875 C 6.164062 -8.851562 6.003906 -8.796875 5.796875 -8.796875 L 3.96875 -8.796875 L 3.96875 -4.125 C 3.96875 -2.820312 4.007812 -2.03125 4.09375 -1.75 C 4.1875 -1.476562 4.328125 -1.289062 4.515625 -1.1875 C 4.710938 -1.082031 4.953125 -1.03125 5.234375 -1.03125 L 6.265625 -1.109375 C 6.460938 -1.109375 6.613281 -1.046875 6.71875 -0.921875 C 6.820312 -0.796875 6.875 -0.679688 6.875 -0.578125 Z M 6.875 -0.578125 "/></g></g></g><g fill="#000000" fill-opacity="1"><g transform="translate(127.463478, 259.788353)"><g><path d="M 6.34375 -6.109375 C 6.71875 -6.109375 7.085938 -6.097656 7.453125 -6.078125 L 7.453125 -6.921875 C 7.453125 -8.296875 6.6875 -8.984375 5.15625 -8.984375 C 4.46875 -8.984375 3.960938 -8.921875 3.640625 -8.796875 C 3.078125 -8.585938 2.671875 -8.40625 2.421875 -8.25 C 2.179688 -8.101562 1.988281 -8.03125 1.84375 -8.03125 C 1.707031 -8.03125 1.578125 -8.082031 1.453125 -8.1875 C 1.328125 -8.300781 1.265625 -8.445312 1.265625 -8.625 C 1.265625 -8.757812 1.34375 -8.898438 1.5 -9.046875 C 2.332031 -9.835938 3.5625 -10.234375 5.1875 -10.234375 C 7.050781 -10.234375 8.25 -9.609375 8.78125 -8.359375 C 8.957031 -7.910156 9.046875 -7.398438 9.046875 -6.828125 L 8.984375 -0.71875 C 8.984375 -0.488281 8.90625 -0.3125 8.75 -0.1875 C 8.59375 -0.0625 8.414062 0 8.21875 0 C 8.03125 0 7.851562 -0.0507812 7.6875 -0.15625 C 7.53125 -0.257812 7.453125 -0.4375 7.453125 -0.6875 L 7.453125 -1.640625 C 7.035156 -0.722656 6.28125 -0.148438 5.1875 0.078125 C 4.84375 0.171875 4.457031 0.21875 4.03125 0.21875 C 3.613281 0.21875 3.195312 0.15625 2.78125 0.03125 C 2.375 -0.09375 2.007812 -0.289062 1.6875 -0.5625 C 1.039062 -1.101562 0.71875 -1.84375 0.71875 -2.78125 C 0.71875 -5 2.59375 -6.109375 6.34375 -6.109375 Z M 7.453125 -4.921875 C 7.171875 -4.878906 6.84375 -4.859375 6.46875 -4.859375 C 6.101562 -4.859375 5.726562 -4.851562 5.34375 -4.84375 C 4.957031 -4.84375 4.585938 -4.800781 4.234375 -4.71875 C 3.878906 -4.632812 3.5625 -4.515625 3.28125 -4.359375 C 2.675781 -4.046875 2.359375 -3.523438 2.328125 -2.796875 C 2.328125 -2.234375 2.554688 -1.796875 3.015625 -1.484375 C 3.367188 -1.203125 3.867188 -1.050781 4.515625 -1.03125 C 5.304688 -1.03125 5.992188 -1.285156 6.578125 -1.796875 C 7.109375 -2.285156 7.398438 -3.023438 7.453125 -4.015625 Z M 7.453125 -4.921875 "/></g></g></g><g fill="#000000" fill-opacity="1"><g transform="translate(137.955318, 259.788353)"><g><path d="M 1.59375 -13.59375 C 1.59375 -13.875 1.675781 -14.070312 1.84375 -14.1875 C 2.019531 -14.3125 2.175781 -14.375 2.3125 -14.375 C 2.457031 -14.375 2.570312 -14.363281 2.65625 -14.34375 C 2.75 -14.332031 2.84375 -14.285156 2.9375 -14.203125 C 3.125 -14.078125 3.21875 -13.875 3.21875 -13.59375 L 3.21875 -0.796875 C 3.21875 -0.523438 3.128906 -0.320312 2.953125 -0.1875 C 2.785156 -0.0625 2.59375 0 2.375 0 C 2.164062 0 1.984375 -0.0625 1.828125 -0.1875 C 1.671875 -0.320312 1.59375 -0.523438 1.59375 -0.796875 Z M 1.59375 -13.59375 "/></g></g></g><g fill="#000000" fill-opacity="1"><g transform="translate(142.712318, 259.788353)"><g/></g></g><g fill="#000000" fill-opacity="1"><g transform="translate(148.02431, 259.788353)"><g><path d="M 3.75 -6.296875 L 3.75 -0.875 C 3.75 -0.445312 3.554688 -0.171875 3.171875 -0.046875 C 3.066406 -0.015625 2.929688 0 2.765625 0 C 2.609375 0 2.4375 -0.0664062 2.25 -0.203125 C 2.070312 -0.347656 1.984375 -0.570312 1.984375 -0.875 L 1.984375 -13.53125 C 1.984375 -13.882812 2.164062 -14.160156 2.53125 -14.359375 C 2.644531 -14.410156 2.769531 -14.4375 2.90625 -14.4375 L 6.5 -14.4375 C 9.5 -14.4375 11.320312 -13.519531 11.96875 -11.6875 C 12.132812 -11.257812 12.21875 -10.804688 12.21875 -10.328125 C 12.21875 -9.859375 12.144531 -9.421875 12 -9.015625 C 11.863281 -8.609375 11.660156 -8.242188 11.390625 -7.921875 C 11.128906 -7.609375 10.8125 -7.351562 10.4375 -7.15625 C 10.070312 -6.96875 9.675781 -6.800781 9.25 -6.65625 C 8.425781 -6.414062 7.484375 -6.296875 6.421875 -6.296875 Z M 6.734375 -7.71875 C 7.878906 -7.71875 8.726562 -7.910156 9.28125 -8.296875 C 10 -8.753906 10.359375 -9.453125 10.359375 -10.390625 C 10.359375 -11.285156 10 -11.960938 9.28125 -12.421875 C 8.726562 -12.773438 7.890625 -12.96875 6.765625 -13 L 3.75 -13 L 3.75 -7.71875 Z M 6.734375 -7.71875 "/></g></g></g><g fill="#000000" fill-opacity="1"><g transform="translate(160.894655, 259.788353)"><g><path d="M 3.171875 -8.359375 C 3.597656 -9.609375 4.523438 -10.234375 5.953125 -10.234375 C 6.210938 -10.234375 6.40625 -10.15625 6.53125 -10 C 6.664062 -9.851562 6.734375 -9.695312 6.734375 -9.53125 C 6.734375 -9.363281 6.664062 -9.203125 6.53125 -9.046875 C 6.40625 -8.898438 6.164062 -8.828125 5.8125 -8.828125 C 5.457031 -8.828125 5.101562 -8.753906 4.75 -8.609375 C 4.40625 -8.472656 4.117188 -8.273438 3.890625 -8.015625 C 3.410156 -7.429688 3.171875 -6.660156 3.171875 -5.703125 L 3.171875 -0.734375 C 3.171875 -0.492188 3.082031 -0.3125 2.90625 -0.1875 C 2.726562 -0.0625 2.566406 0 2.421875 0 C 2.285156 0 2.171875 -0.0078125 2.078125 -0.03125 C 1.992188 -0.0625 1.910156 -0.125 1.828125 -0.21875 C 1.671875 -0.320312 1.59375 -0.492188 1.59375 -0.734375 L 1.59375 -9.25 C 1.59375 -9.476562 1.671875 -9.664062 1.828125 -9.8125 C 1.984375 -9.96875 2.179688 -10.046875 2.421875 -10.046875 C 2.660156 -10.046875 2.84375 -9.96875 2.96875 -9.8125 C 3.101562 -9.664062 3.171875 -9.476562 3.171875 -9.25 Z M 3.171875 -8.359375 "/></g></g></g><g fill="#000000" fill-opacity="1"><g transform="translate(168.03016, 259.788353)"><g><path d="M 10.515625 -5.3125 C 10.515625 -4.945312 10.304688 -4.742188 9.890625 -4.703125 L 2.640625 -4.703125 C 2.710938 -2.910156 3.421875 -1.75 4.765625 -1.21875 C 5.128906 -1.09375 5.550781 -1.03125 6.03125 -1.03125 C 7.019531 -1.03125 8.023438 -1.390625 9.046875 -2.109375 C 9.359375 -2.285156 9.617188 -2.269531 9.828125 -2.0625 C 9.941406 -1.957031 9.976562 -1.851562 9.9375 -1.75 C 9.9375 -1.5 9.875 -1.320312 9.75 -1.21875 C 8.78125 -0.25 7.503906 0.226562 5.921875 0.21875 C 4.472656 0.21875 3.3125 -0.25 2.4375 -1.1875 C 1.445312 -2.15625 0.953125 -3.429688 0.953125 -5.015625 C 0.953125 -6.484375 1.359375 -7.691406 2.171875 -8.640625 C 3.015625 -9.703125 4.210938 -10.234375 5.765625 -10.234375 C 7.316406 -10.234375 8.5 -9.765625 9.3125 -8.828125 C 10.082031 -7.984375 10.484375 -6.8125 10.515625 -5.3125 Z M 8.96875 -5.796875 C 8.90625 -6.742188 8.59375 -7.523438 8.03125 -8.140625 C 7.507812 -8.703125 6.753906 -8.984375 5.765625 -8.984375 C 4.921875 -8.984375 4.195312 -8.664062 3.59375 -8.03125 C 3.050781 -7.394531 2.753906 -6.648438 2.703125 -5.796875 Z M 8.96875 -5.796875 "/></g></g></g><g fill="#000000" fill-opacity="1"><g transform="translate(179.446968, 259.788353)"><g><path d="M 5.125 -8.984375 C 3.59375 -8.984375 2.84375 -8.5 2.875 -7.53125 C 2.875 -6.914062 3.316406 -6.492188 4.203125 -6.265625 C 4.492188 -6.179688 4.8125 -6.101562 5.15625 -6.03125 C 5.5 -5.957031 5.875 -5.867188 6.28125 -5.765625 C 6.6875 -5.671875 7.101562 -5.546875 7.53125 -5.390625 C 8.125 -5.210938 8.582031 -4.914062 8.90625 -4.5 C 9.238281 -4.09375 9.40625 -3.597656 9.40625 -3.015625 C 9.40625 -1.953125 8.957031 -1.132812 8.0625 -0.5625 C 7.25 -0.03125 6.222656 0.226562 4.984375 0.21875 C 4.066406 0.21875 3.171875 0.0546875 2.296875 -0.265625 C 1.941406 -0.398438 1.65625 -0.566406 1.4375 -0.765625 C 1.226562 -0.960938 1.125 -1.148438 1.125 -1.328125 C 1.125 -1.503906 1.179688 -1.644531 1.296875 -1.75 C 1.410156 -1.851562 1.546875 -1.90625 1.703125 -1.90625 C 1.867188 -1.90625 2.050781 -1.859375 2.25 -1.765625 C 2.457031 -1.679688 2.71875 -1.585938 3.03125 -1.484375 C 3.84375 -1.179688 4.492188 -1.03125 4.984375 -1.03125 C 5.484375 -1.03125 5.878906 -1.0625 6.171875 -1.125 C 6.472656 -1.1875 6.75 -1.285156 7 -1.421875 C 7.53125 -1.773438 7.796875 -2.234375 7.796875 -2.796875 C 7.796875 -3.203125 7.664062 -3.515625 7.40625 -3.734375 C 7.15625 -3.960938 6.832031 -4.132812 6.4375 -4.25 C 6.039062 -4.375 5.644531 -4.476562 5.25 -4.5625 C 4.863281 -4.65625 4.476562 -4.742188 4.09375 -4.828125 C 3.707031 -4.921875 3.335938 -5.03125 2.984375 -5.15625 C 2.628906 -5.28125 2.328125 -5.445312 2.078125 -5.65625 C 1.484375 -6.082031 1.1875 -6.679688 1.1875 -7.453125 C 1.1875 -8.441406 1.597656 -9.15625 2.421875 -9.59375 C 3.109375 -10.019531 4.019531 -10.234375 5.15625 -10.234375 C 6.300781 -10.234375 7.21875 -10.066406 7.90625 -9.734375 C 8.476562 -9.429688 8.765625 -9.09375 8.765625 -8.71875 C 8.765625 -8.582031 8.707031 -8.46875 8.59375 -8.375 C 8.476562 -8.289062 8.351562 -8.25 8.21875 -8.25 C 7.957031 -8.25 7.757812 -8.289062 7.625 -8.375 C 7.488281 -8.46875 7.34375 -8.554688 7.1875 -8.640625 C 7.03125 -8.734375 6.84375 -8.796875 6.625 -8.828125 C 6.238281 -8.929688 5.738281 -8.984375 5.125 -8.984375 Z M 5.125 -8.984375 "/></g></g></g><g fill="#000000" fill-opacity="1"><g transform="translate(189.780239, 259.788353)"><g><path d="M 6.875 -0.578125 C 6.875 -0.046875 6.25 0.21875 5 0.21875 C 4.0625 0.21875 3.398438 -0.0390625 3.015625 -0.5625 C 2.585938 -1.101562 2.359375 -2 2.328125 -3.25 L 2.328125 -8.796875 L 1.15625 -8.796875 C 0.945312 -8.796875 0.78125 -8.863281 0.65625 -9 C 0.53125 -9.132812 0.46875 -9.269531 0.46875 -9.40625 C 0.46875 -9.550781 0.519531 -9.691406 0.625 -9.828125 C 0.738281 -9.972656 0.914062 -10.046875 1.15625 -10.046875 L 2.4375 -10.046875 L 2.53125 -12.90625 C 2.570312 -13.113281 2.671875 -13.273438 2.828125 -13.390625 C 2.984375 -13.503906 3.148438 -13.5625 3.328125 -13.5625 C 3.503906 -13.5625 3.65625 -13.507812 3.78125 -13.40625 C 3.90625 -13.300781 3.96875 -13.132812 3.96875 -12.90625 L 3.96875 -10.046875 L 5.796875 -10.046875 C 6.003906 -10.046875 6.164062 -9.972656 6.28125 -9.828125 C 6.394531 -9.691406 6.453125 -9.550781 6.453125 -9.40625 C 6.453125 -9.226562 6.394531 -9.082031 6.28125 -8.96875 C 6.164062 -8.851562 6.003906 -8.796875 5.796875 -8.796875 L 3.96875 -8.796875 L 3.96875 -4.125 C 3.96875 -2.820312 4.007812 -2.03125 4.09375 -1.75 C 4.1875 -1.476562 4.328125 -1.289062 4.515625 -1.1875 C 4.710938 -1.082031 4.953125 -1.03125 5.234375 -1.03125 L 6.265625 -1.109375 C 6.460938 -1.109375 6.613281 -1.046875 6.71875 -0.921875 C 6.820312 -0.796875 6.875 -0.679688 6.875 -0.578125 Z M 6.875 -0.578125 "/></g></g></g><g fill="#000000" fill-opacity="1"><g transform="translate(196.862895, 259.788353)"><g><path d="M 3.484375 -13.53125 C 3.484375 -13.25 3.382812 -13.019531 3.1875 -12.84375 C 3 -12.664062 2.726562 -12.578125 2.375 -12.578125 C 2.019531 -12.578125 1.742188 -12.664062 1.546875 -12.84375 C 1.359375 -13.019531 1.265625 -13.25 1.265625 -13.53125 C 1.265625 -13.78125 1.359375 -13.992188 1.546875 -14.171875 C 1.742188 -14.347656 2.023438 -14.4375 2.390625 -14.4375 C 2.753906 -14.4375 3.023438 -14.347656 3.203125 -14.171875 C 3.390625 -13.992188 3.484375 -13.78125 3.484375 -13.53125 Z M 1.59375 -9.203125 C 1.59375 -9.460938 1.675781 -9.664062 1.84375 -9.8125 C 2.019531 -9.96875 2.175781 -10.046875 2.3125 -10.046875 C 2.457031 -10.046875 2.570312 -10.019531 2.65625 -9.96875 C 2.75 -9.925781 2.84375 -9.863281 2.9375 -9.78125 C 3.125 -9.65625 3.21875 -9.460938 3.21875 -9.203125 L 3.21875 -0.796875 C 3.21875 -0.523438 3.128906 -0.320312 2.953125 -0.1875 C 2.785156 -0.0625 2.59375 0 2.375 0 C 2.164062 0 1.984375 -0.0625 1.828125 -0.1875 C 1.671875 -0.320312 1.59375 -0.523438 1.59375 -0.796875 Z M 1.59375 -9.203125 "/></g></g></g><g fill="#000000" fill-opacity="1"><g transform="translate(201.619895, 259.788353)"><g><path d="M 5.609375 -8.96875 C 3.628906 -8.96875 2.640625 -7.648438 2.640625 -5.015625 C 2.640625 -3.785156 2.945312 -2.816406 3.5625 -2.109375 C 4.09375 -1.492188 4.78125 -1.175781 5.625 -1.15625 C 6.488281 -1.15625 7.222656 -1.484375 7.828125 -2.140625 C 8.460938 -2.828125 8.78125 -3.769531 8.78125 -4.96875 C 8.78125 -6.769531 8.210938 -7.988281 7.078125 -8.625 C 6.691406 -8.851562 6.203125 -8.96875 5.609375 -8.96875 Z M 5.1875 -10.234375 C 6.90625 -10.234375 8.117188 -9.570312 8.828125 -8.25 L 8.828125 -9.359375 C 8.859375 -9.566406 8.945312 -9.734375 9.09375 -9.859375 C 9.238281 -9.984375 9.40625 -10.046875 9.59375 -10.046875 C 9.789062 -10.046875 9.96875 -9.972656 10.125 -9.828125 C 10.28125 -9.691406 10.359375 -9.507812 10.359375 -9.28125 L 10.359375 0.21875 C 10.359375 1.59375 9.921875 2.613281 9.046875 3.28125 C 8.253906 3.914062 7.109375 4.234375 5.609375 4.234375 C 4.265625 4.234375 3.257812 4.003906 2.59375 3.546875 C 2.0625 3.148438 1.796875 2.832031 1.796875 2.59375 C 1.796875 2.414062 1.851562 2.269531 1.96875 2.15625 C 2.082031 2.039062 2.210938 1.984375 2.359375 1.984375 C 2.515625 1.984375 2.660156 2.03125 2.796875 2.125 C 2.941406 2.226562 3.109375 2.320312 3.296875 2.40625 C 3.492188 2.488281 3.691406 2.566406 3.890625 2.640625 C 4.398438 2.816406 4.921875 2.90625 5.453125 2.90625 C 5.992188 2.90625 6.460938 2.859375 6.859375 2.765625 C 7.253906 2.679688 7.59375 2.535156 7.875 2.328125 C 8.476562 1.941406 8.78125 1.269531 8.78125 0.3125 L 8.78125 -1.984375 C 8.269531 -1.015625 7.457031 -0.390625 6.34375 -0.109375 C 5.988281 -0.0351562 5.644531 0 5.3125 0 C 3.851562 0 2.734375 -0.5 1.953125 -1.5 C 1.234375 -2.40625 0.875 -3.5625 0.875 -4.96875 C 0.875 -6.46875 1.234375 -7.691406 1.953125 -8.640625 C 2.710938 -9.703125 3.789062 -10.234375 5.1875 -10.234375 Z M 5.1875 -10.234375 "/></g></g></g><g fill="#000000" fill-opacity="1"><g transform="translate(213.300981, 259.788353)"><g><path d="M 10.515625 -5.3125 C 10.515625 -4.945312 10.304688 -4.742188 9.890625 -4.703125 L 2.640625 -4.703125 C 2.710938 -2.910156 3.421875 -1.75 4.765625 -1.21875 C 5.128906 -1.09375 5.550781 -1.03125 6.03125 -1.03125 C 7.019531 -1.03125 8.023438 -1.390625 9.046875 -2.109375 C 9.359375 -2.285156 9.617188 -2.269531 9.828125 -2.0625 C 9.941406 -1.957031 9.976562 -1.851562 9.9375 -1.75 C 9.9375 -1.5 9.875 -1.320312 9.75 -1.21875 C 8.78125 -0.25 7.503906 0.226562 5.921875 0.21875 C 4.472656 0.21875 3.3125 -0.25 2.4375 -1.1875 C 1.445312 -2.15625 0.953125 -3.429688 0.953125 -5.015625 C 0.953125 -6.484375 1.359375 -7.691406 2.171875 -8.640625 C 3.015625 -9.703125 4.210938 -10.234375 5.765625 -10.234375 C 7.316406 -10.234375 8.5 -9.765625 9.3125 -8.828125 C 10.082031 -7.984375 10.484375 -6.8125 10.515625 -5.3125 Z M 8.96875 -5.796875 C 8.90625 -6.742188 8.59375 -7.523438 8.03125 -8.140625 C 7.507812 -8.703125 6.753906 -8.984375 5.765625 -8.984375 C 4.921875 -8.984375 4.195312 -8.664062 3.59375 -8.03125 C 3.050781 -7.394531 2.753906 -6.648438 2.703125 -5.796875 Z M 8.96875 -5.796875 "/></g></g></g><g fill="#000000" fill-opacity="1"><g transform="translate(224.71779, 259.788353)"><g/></g></g><g fill="#000000" fill-opacity="1"><g transform="translate(230.029782, 259.788353)"><g><path d="M 6.578125 -1.53125 L 10.890625 -13.796875 C 11.085938 -14.222656 11.367188 -14.4375 11.734375 -14.4375 C 11.953125 -14.4375 12.128906 -14.382812 12.265625 -14.28125 C 12.472656 -14.101562 12.578125 -13.890625 12.578125 -13.640625 L 12.578125 -13.53125 C 12.578125 -13.5 12.5625 -13.445312 12.53125 -13.375 L 8.015625 -1.0625 C 7.796875 -0.351562 7.289062 0 6.5 0 C 5.800781 0 5.328125 -0.351562 5.078125 -1.0625 L 0.46875 -13.328125 C 0.4375 -13.429688 0.421875 -13.523438 0.421875 -13.609375 C 0.421875 -13.703125 0.445312 -13.800781 0.5 -13.90625 C 0.550781 -14.007812 0.625 -14.109375 0.71875 -14.203125 C 0.90625 -14.359375 1.109375 -14.4375 1.328125 -14.4375 C 1.765625 -14.4375 2.046875 -14.242188 2.171875 -13.859375 Z M 6.578125 -1.53125 "/></g></g></g><g fill="#000000" fill-opacity="1"><g transform="translate(243.032261, 259.788353)"><g><path d="M 1.03125 -12.921875 C 0.769531 -12.921875 0.578125 -13 0.453125 -13.15625 C 0.328125 -13.320312 0.265625 -13.492188 0.265625 -13.671875 C 0.265625 -13.859375 0.328125 -14.03125 0.453125 -14.1875 C 0.578125 -14.351562 0.769531 -14.4375 1.03125 -14.4375 L 10.6875 -14.4375 C 10.925781 -14.4375 11.109375 -14.351562 11.234375 -14.1875 C 11.359375 -14.03125 11.421875 -13.859375 11.421875 -13.671875 C 11.421875 -13.492188 11.351562 -13.320312 11.21875 -13.15625 C 11.09375 -13 10.914062 -12.921875 10.6875 -12.921875 L 6.765625 -12.921875 L 6.765625 -0.875 C 6.765625 -0.46875 6.585938 -0.191406 6.234375 -0.046875 C 6.128906 -0.015625 5.988281 0 5.8125 0 C 5.632812 0 5.445312 -0.0664062 5.25 -0.203125 C 5.0625 -0.347656 4.96875 -0.570312 4.96875 -0.875 L 4.96875 -12.921875 Z M 1.03125 -12.921875 "/></g></g></g><g fill="#000000" fill-opacity="1"><g transform="translate(254.686923, 259.788353)"><g><path d="M 1.1875 -7.140625 C 1.1875 -8.054688 1.316406 -8.976562 1.578125 -9.90625 C 1.847656 -10.84375 2.253906 -11.644531 2.796875 -12.3125 C 3.960938 -13.800781 5.617188 -14.546875 7.765625 -14.546875 C 9.003906 -14.546875 10.207031 -14.269531 11.375 -13.71875 C 11.664062 -13.59375 11.8125 -13.390625 11.8125 -13.109375 C 11.8125 -12.578125 11.601562 -12.304688 11.1875 -12.296875 C 11.09375 -12.296875 11.007812 -12.300781 10.9375 -12.3125 C 9.726562 -12.738281 8.765625 -12.953125 8.046875 -12.953125 C 7.335938 -12.953125 6.742188 -12.875 6.265625 -12.71875 C 5.785156 -12.5625 5.367188 -12.335938 5.015625 -12.046875 C 4.671875 -11.765625 4.375 -11.4375 4.125 -11.0625 C 3.875 -10.695312 3.679688 -10.285156 3.546875 -9.828125 C 3.242188 -8.984375 3.09375 -8.085938 3.09375 -7.140625 C 3.09375 -5.585938 3.4375 -4.28125 4.125 -3.21875 C 4.9375 -1.96875 6.1875 -1.34375 7.875 -1.34375 C 9.039062 -1.34375 10.148438 -1.65625 11.203125 -2.28125 C 11.347656 -2.3125 11.484375 -2.328125 11.609375 -2.328125 C 11.742188 -2.328125 11.867188 -2.265625 11.984375 -2.140625 C 12.097656 -2.015625 12.15625 -1.851562 12.15625 -1.65625 C 12.15625 -1.46875 12.082031 -1.289062 11.9375 -1.125 C 11.800781 -0.957031 11.613281 -0.804688 11.375 -0.671875 C 11.144531 -0.535156 10.882812 -0.414062 10.59375 -0.3125 C 10.300781 -0.207031 9.992188 -0.117188 9.671875 -0.046875 C 9.003906 0.128906 8.367188 0.21875 7.765625 0.21875 C 5.597656 0.21875 3.941406 -0.515625 2.796875 -1.984375 C 1.722656 -3.304688 1.1875 -5.023438 1.1875 -7.140625 Z M 1.1875 -7.140625 "/></g></g></g></svg>