<svg xmlns="http://www.w3.org/2000/svg" xmlns:xlink="http://www.w3.org/1999/xlink" width="500" zoomAndPan="magnify" viewBox="0 0 375 374.999991" height="500" preserveAspectRatio="xMidYMid meet" version="1.0"><defs><g/><clipPath id="47f5a45360"><path d="M 85.4375 128.691406 L 158 128.691406 L 158 163 L 85.4375 163 Z M 85.4375 128.691406 " clip-rule="nonzero"/></clipPath><clipPath id="f986485dbd"><path d="M 208 168 L 271.4375 168 L 271.4375 178 L 208 178 Z M 208 168 " clip-rule="nonzero"/></clipPath><clipPath id="19a8e7f57e"><path d="M 237 178 L 259 178 L 259 184.191406 L 237 184.191406 Z M 237 178 " clip-rule="nonzero"/></clipPath></defs><rect x="-37.5" width="450" fill="#ffffff" y="-37.499999" height="449.999989" fill-opacity="1"/><rect x="-37.5" width="450" fill="#ffffff" y="-37.499999" height="449.999989" fill-opacity="1"/><g clip-path="url(#47f5a45360)"><path fill="#222222" d="M 153.28125 129.179688 C 154.621094 128.960938 155.964844 128.710938 157.324219 128.695312 C 153.402344 129.300781 149.523438 130.257812 145.816406 131.691406 C 142.402344 133.007812 139.175781 134.8125 136.257812 137.03125 C 133.546875 139.058594 131.117188 141.429688 128.539062 143.621094 C 125.636719 146.03125 122.46875 148.097656 119.1875 149.953125 C 112.160156 153.898438 104.644531 156.914062 96.996094 159.429688 C 93.699219 160.496094 90.375 161.488281 87.015625 162.339844 C 86.519531 162.449219 86.03125 162.621094 85.519531 162.652344 C 87.4375 162.1875 89.320312 161.585938 91.214844 161.027344 C 99.226562 158.5625 107.113281 155.589844 114.558594 151.714844 C 119.8125 148.96875 124.847656 145.742188 129.265625 141.769531 C 130.320312 140.855469 131.269531 139.832031 132.335938 138.9375 C 138.234375 133.824219 145.625 130.566406 153.28125 129.179688 Z M 153.28125 129.179688 " fill-opacity="1" fill-rule="nonzero"/></g><path fill="#222222" d="M 171.871094 129.804688 C 180.367188 129.246094 188.902344 129.90625 197.320312 131.097656 C 199.519531 131.265625 201.578125 132.109375 203.648438 132.800781 C 210.140625 135.027344 216.566406 137.476562 222.796875 140.367188 C 217.476562 139.894531 212.132812 139.734375 206.792969 139.722656 C 200.410156 139.695312 194.03125 139.878906 187.660156 140.195312 C 186.140625 140.277344 184.605469 140.328125 183.105469 140.046875 C 181.914062 139.828125 180.738281 139.375 179.808594 138.582031 C 177.269531 136.308594 174.863281 133.878906 172.121094 131.84375 C 171.648438 131.472656 171.058594 131.21875 170.71875 130.699219 C 170.589844 130.527344 170.566406 130.242188 170.765625 130.113281 C 171.082031 129.882812 171.492188 129.847656 171.871094 129.804688 Z M 171.871094 129.804688 " fill-opacity="1" fill-rule="nonzero"/><path fill="#222222" d="M 158.261719 131.351562 C 160.429688 131.128906 162.65625 131.230469 164.753906 131.851562 C 167.546875 132.648438 170.070312 134.257812 172.121094 136.300781 C 173.84375 138 175.242188 140.003906 176.414062 142.113281 C 168.015625 142.453125 159.617188 142.765625 151.21875 143.109375 C 150.0625 140.597656 148.574219 138.207031 146.609375 136.25 C 146.285156 135.910156 145.835938 135.640625 145.691406 135.167969 C 145.667969 134.796875 146.078125 134.636719 146.351562 134.496094 C 147.773438 133.902344 149.230469 133.40625 150.703125 132.953125 C 153.167969 132.203125 155.691406 131.601562 158.261719 131.351562 Z M 158.261719 131.351562 " fill-opacity="1" fill-rule="nonzero"/><path fill="#222222" d="M 141.824219 136.59375 C 142.378906 136.320312 142.917969 135.9375 143.558594 135.914062 C 144.046875 135.964844 144.421875 136.328125 144.789062 136.621094 C 145.867188 137.589844 146.707031 138.792969 147.5 139.996094 C 147.945312 140.683594 148.367188 141.382812 148.757812 142.101562 C 148.886719 142.363281 149.039062 142.683594 148.90625 142.972656 C 148.710938 143.273438 148.308594 143.238281 148 143.246094 C 145.695312 143.21875 143.394531 143.257812 141.09375 143.324219 C 138.890625 143.421875 136.679688 143.542969 134.503906 143.898438 C 133.710938 144.035156 132.90625 144.183594 132.167969 144.519531 C 133.847656 141.652344 136.464844 139.449219 139.347656 137.855469 C 140.152344 137.394531 140.992188 137.003906 141.824219 136.59375 Z M 141.824219 136.59375 " fill-opacity="1" fill-rule="nonzero"/><path fill="#222222" d="M 195.25 141.621094 C 200.28125 141.496094 205.3125 141.367188 210.339844 141.132812 C 215.765625 140.949219 221.207031 141.027344 226.613281 141.527344 C 231.292969 141.9375 235.960938 142.4375 240.617188 143.050781 C 243.070312 143.378906 245.523438 143.734375 247.953125 144.222656 C 251.550781 144.921875 255.191406 145.632812 258.566406 147.113281 C 259.582031 147.566406 260.574219 148.074219 261.515625 148.667969 C 259.601562 147.925781 257.636719 147.296875 255.617188 146.910156 C 254.757812 146.734375 253.886719 146.648438 253.027344 146.480469 C 252.050781 146.398438 251.074219 146.488281 250.097656 146.476562 C 247.0625 146.5 244.023438 146.59375 241.011719 147.007812 C 240.621094 147.070312 240.164062 147.140625 239.917969 147.488281 C 239.703125 147.832031 239.867188 148.253906 240.023438 148.589844 C 241.066406 150.429688 242 152.324219 242.96875 154.203125 C 243.632812 155.53125 244.324219 156.839844 244.964844 158.175781 C 242.332031 153.976562 238.699219 150.417969 234.488281 147.808594 C 233.765625 147.367188 233.03125 146.945312 232.265625 146.585938 C 231.226562 146.105469 230.101562 145.847656 228.976562 145.667969 C 226.808594 145.386719 224.671875 144.925781 222.515625 144.570312 C 212.242188 142.789062 201.824219 141.746094 191.394531 141.726562 C 192.679688 141.640625 193.964844 141.65625 195.25 141.621094 Z M 195.25 141.621094 " fill-opacity="1" fill-rule="nonzero"/><path fill="#222222" d="M 220.898438 147.320312 C 222.523438 147.660156 224.164062 148.253906 225.414062 149.386719 C 226.136719 150.03125 226.671875 150.890625 226.902344 151.835938 C 227.058594 152.453125 226.976562 153.148438 226.59375 153.671875 C 226.128906 154.3125 225.390625 154.683594 224.65625 154.921875 C 225.328125 154.40625 226.019531 153.828125 226.304688 153 C 226.574219 152.226562 226.320312 151.375 225.847656 150.738281 C 225.109375 149.726562 224.058594 149 222.996094 148.367188 C 222.320312 147.972656 221.617188 147.625 220.898438 147.320312 Z M 220.898438 147.320312 " fill-opacity="1" fill-rule="nonzero"/><path fill="#222222" d="M 252.1875 147.316406 C 252.636719 147.257812 253.097656 147.234375 253.550781 147.285156 C 255.699219 147.71875 257.871094 148.089844 259.957031 148.777344 C 260.566406 148.980469 261.179688 149.222656 261.675781 149.640625 C 262.339844 150.164062 262.765625 150.925781 263.039062 151.71875 C 263.523438 153.132812 264.027344 154.542969 264.375 156 C 264.515625 156.621094 264.679688 157.316406 264.355469 157.910156 C 264.167969 158.289062 263.726562 158.480469 263.316406 158.453125 C 259.214844 158.140625 255.101562 157.980469 250.988281 157.914062 C 249.933594 157.871094 248.84375 158.011719 247.828125 157.664062 C 246.691406 157.269531 245.859375 156.328125 245.1875 155.367188 C 244.085938 153.769531 243.105469 152.089844 242.191406 150.378906 C 241.910156 149.800781 241.644531 149.136719 241.808594 148.488281 C 241.9375 148.011719 242.449219 147.800781 242.902344 147.769531 C 245.988281 147.464844 249.09375 147.46875 252.1875 147.316406 Z M 252.1875 147.316406 " fill-opacity="1" fill-rule="nonzero"/><path fill="#222222" d="M 218.351562 147.421875 C 219.957031 147.292969 221.476562 148.019531 222.820312 148.820312 C 223.679688 149.34375 224.511719 149.960938 225.09375 150.792969 C 225.566406 151.46875 225.808594 152.328125 225.65625 153.148438 C 225.433594 153.890625 224.757812 154.398438 224.042969 154.613281 C 223.125 154.882812 222.144531 154.847656 221.214844 154.667969 C 219.015625 154.242188 217.117188 152.648438 216.226562 150.605469 C 215.949219 149.996094 215.90625 149.222656 216.351562 148.679688 C 216.855469 148.066406 217.527344 147.496094 218.351562 147.421875 Z M 218.351562 147.421875 " fill-opacity="1" fill-rule="nonzero"/><path fill="#222222" d="M 228.835938 147.464844 C 230.425781 147.191406 232.019531 147.816406 233.3125 148.710938 C 234.136719 149.273438 234.871094 149.964844 235.546875 150.699219 C 236.164062 151.335938 236.5625 152.167969 236.777344 153.023438 C 236.929688 153.710938 236.941406 154.507812 236.488281 155.089844 C 235.957031 155.761719 235.035156 155.980469 234.214844 155.960938 C 232.015625 155.753906 229.929688 154.5625 228.628906 152.773438 C 228.15625 152.132812 227.777344 151.421875 227.492188 150.679688 C 227.257812 149.996094 227.195312 149.222656 227.484375 148.546875 C 227.71875 147.992188 228.242188 147.570312 228.835938 147.464844 Z M 228.835938 147.464844 " fill-opacity="1" fill-rule="nonzero"/><path fill="#222222" d="M 232.527344 147.703125 C 233.925781 148.464844 235.328125 149.261719 236.53125 150.320312 C 237.136719 150.867188 237.71875 151.484375 238.039062 152.25 C 238.285156 152.824219 238.316406 153.507812 238.027344 154.074219 C 237.8125 154.535156 237.425781 154.886719 237.03125 155.195312 C 237.441406 154.445312 237.542969 153.535156 237.269531 152.722656 C 236.851562 151.417969 235.894531 150.382812 234.898438 149.480469 C 234.164062 148.8125 233.335938 148.265625 232.527344 147.703125 Z M 232.527344 147.703125 " fill-opacity="1" fill-rule="nonzero"/><path fill="#222222" d="M 263.449219 150.679688 C 263.492188 150.660156 263.570312 150.617188 263.609375 150.59375 C 264 150.679688 264.300781 150.972656 264.582031 151.238281 C 265.394531 152.101562 265.960938 153.164062 266.4375 154.238281 C 266.753906 154.988281 267.105469 155.742188 267.21875 156.558594 C 267.253906 156.90625 267.285156 157.320312 267.027344 157.597656 C 266.863281 157.703125 266.6875 157.570312 266.566406 157.46875 C 265.507812 156.425781 264.980469 154.996094 264.316406 153.703125 C 263.964844 152.949219 263.585938 152.199219 263.386719 151.386719 C 263.351562 151.160156 263.28125 150.875 263.449219 150.679688 Z M 263.449219 150.679688 " fill-opacity="1" fill-rule="nonzero"/><path fill="#222222" d="M 192.546875 153.25 C 194.324219 152.929688 196.207031 152.945312 197.90625 153.609375 C 199.402344 154.171875 200.695312 155.191406 201.6875 156.429688 C 202.929688 157.972656 203.757812 159.8125 204.308594 161.703125 C 204.898438 163.78125 205.183594 165.945312 205.152344 168.105469 C 205.042969 170.03125 204.789062 171.953125 204.277344 173.8125 C 203.796875 175.558594 203.078125 177.265625 201.980469 178.714844 C 201.015625 179.996094 199.730469 181.050781 198.242188 181.667969 C 196.558594 182.382812 194.675781 182.550781 192.871094 182.316406 C 194.441406 182.164062 195.996094 181.65625 197.269531 180.703125 C 198.710938 179.636719 199.746094 178.109375 200.457031 176.480469 C 201.378906 174.367188 201.839844 172.078125 202.105469 169.796875 C 202.394531 167.574219 202.355469 165.316406 202.074219 163.09375 C 201.832031 161.261719 201.386719 159.433594 200.535156 157.785156 C 199.800781 156.367188 198.726562 155.097656 197.335938 154.289062 C 195.90625 153.429688 194.199219 153.144531 192.546875 153.25 Z M 192.546875 153.25 " fill-opacity="1" fill-rule="nonzero"/><path fill="#222222" d="M 133.105469 158.195312 C 133.929688 159.609375 134.816406 161.011719 135.976562 162.179688 C 136.652344 162.851562 137.4375 163.425781 138.332031 163.765625 C 139.273438 164.136719 140.289062 164.230469 141.285156 164.304688 C 153.386719 165.039062 165.488281 165.726562 177.589844 166.433594 C 178.324219 166.5 179.066406 166.464844 179.792969 166.59375 C 174.0625 166.464844 168.324219 166.410156 162.59375 166.308594 C 155.230469 166.203125 147.867188 166.078125 140.503906 165.972656 C 139.550781 165.929688 138.582031 166.019531 137.640625 165.820312 C 136.234375 165.503906 135.136719 164.332031 134.699219 162.988281 C 134.175781 161.386719 133.605469 159.800781 133.105469 158.195312 Z M 133.105469 158.195312 " fill-opacity="1" fill-rule="nonzero"/><path fill="#222222" d="M 141.785156 168.214844 C 142.210938 168.164062 142.632812 168.0625 143.0625 168.066406 C 151.050781 168.382812 159.046875 168.667969 167.039062 168.90625 C 169.933594 168.976562 172.828125 169.074219 175.722656 169.085938 C 176.046875 169.089844 176.371094 169.121094 176.691406 169.164062 C 175.542969 169.132812 174.398438 169.261719 173.25 169.277344 C 165.988281 169.570312 158.71875 169.589844 151.449219 169.558594 C 145.722656 169.527344 139.996094 169.429688 134.269531 169.292969 C 136.769531 168.914062 139.28125 168.578125 141.785156 168.214844 Z M 141.785156 168.214844 " fill-opacity="1" fill-rule="nonzero"/><g clip-path="url(#f986485dbd)"><path fill="#222222" d="M 208.941406 169.097656 C 209.007812 168.921875 209.199219 168.953125 209.351562 168.953125 C 213.636719 169.15625 217.925781 169.34375 222.21875 169.242188 C 222.890625 170.566406 224.039062 171.652344 225.4375 172.164062 C 226.34375 172.511719 227.324219 172.648438 228.292969 172.605469 C 236.042969 173.097656 243.804688 173.5 251.574219 173.390625 C 254.339844 173.285156 257.101562 173.121094 259.855469 172.867188 C 262 172.65625 264.140625 172.402344 266.25 171.957031 C 267.15625 171.753906 268.066406 171.535156 268.925781 171.171875 C 269.371094 170.976562 269.84375 170.753906 270.113281 170.328125 C 270.558594 170.898438 270.753906 171.605469 270.957031 172.289062 C 271.144531 172.933594 271.019531 173.667969 270.578125 174.179688 C 269.9375 174.933594 268.988281 175.3125 268.074219 175.621094 C 266.171875 176.226562 264.179688 176.484375 262.203125 176.71875 C 257.070312 177.257812 251.90625 177.414062 246.75 177.585938 C 236.089844 177.933594 225.40625 177.621094 214.777344 176.71875 C 213.066406 176.5625 211.351562 176.40625 209.644531 176.203125 C 209.511719 176.167969 209.292969 176.1875 209.269531 176.007812 C 209.273438 173.703125 209.152344 171.390625 208.941406 169.097656 Z M 208.941406 169.097656 " fill-opacity="1" fill-rule="nonzero"/></g><path fill="#222222" d="M 201.464844 180.632812 C 204.355469 178.140625 205.835938 174.3125 206 170.558594 C 206.253906 171.59375 206.242188 172.671875 206.3125 173.734375 C 206.347656 175.144531 206.390625 176.558594 206.308594 177.96875 C 206.371094 178.261719 206.730469 178.339844 206.984375 178.394531 C 208.214844 178.582031 209.460938 178.566406 210.703125 178.660156 C 210.351562 179.246094 209.828125 179.691406 209.351562 180.164062 C 208.617188 180.871094 207.847656 181.546875 207.0625 182.195312 C 206.160156 182.929688 204.921875 182.878906 203.832031 183.015625 C 201.480469 183.183594 199.109375 183.359375 196.757812 183.144531 C 198.476562 182.640625 200.109375 181.808594 201.464844 180.632812 Z M 201.464844 180.632812 " fill-opacity="1" fill-rule="nonzero"/><path fill="#222222" d="M 115.730469 172.496094 C 117.90625 172.664062 120.074219 172.941406 122.25 173.144531 C 132.304688 174.160156 142.367188 175.125 152.4375 176.003906 C 159.171875 176.582031 165.910156 177.136719 172.660156 177.523438 C 174.316406 177.589844 175.96875 177.714844 177.625 177.730469 C 174.953125 177.765625 172.277344 177.695312 169.601562 177.675781 C 162.828125 177.617188 156.054688 177.5625 149.28125 177.535156 C 148.792969 177.523438 148.308594 177.550781 147.824219 177.515625 C 137.125 175.851562 126.429688 174.152344 115.730469 172.496094 Z M 115.730469 172.496094 " fill-opacity="1" fill-rule="nonzero"/><g clip-path="url(#19a8e7f57e)"><path fill="#222222" d="M 252.5625 179.199219 C 254.65625 179.140625 256.75 179.046875 258.839844 178.867188 C 258.480469 179.523438 257.871094 179.988281 257.308594 180.460938 C 254.710938 182.488281 251.53125 183.855469 248.222656 184.046875 C 246.109375 184.167969 243.972656 183.75 242.0625 182.84375 C 240.21875 181.988281 238.582031 180.722656 237.175781 179.261719 C 242.304688 179.324219 247.433594 179.335938 252.5625 179.199219 Z M 252.5625 179.199219 " fill-opacity="1" fill-rule="nonzero"/></g><g fill="#222222" fill-opacity="1"><g transform="translate(86.271788, 218.625161)"><g><path d="M 5.4375 0.296875 C 3.757812 0.296875 2.921875 -0.5625 2.921875 -2.28125 L 2.921875 -24.203125 C 2.921875 -25.929688 3.785156 -26.796875 5.515625 -26.796875 L 18.765625 -26.796875 C 20.085938 -26.796875 20.75 -26.160156 20.75 -24.890625 C 20.75 -23.578125 20.085938 -22.921875 18.765625 -22.921875 L 7.796875 -22.921875 L 7.796875 -15.359375 L 17.96875 -15.359375 C 19.289062 -15.359375 19.953125 -14.722656 19.953125 -13.453125 C 19.953125 -12.128906 19.289062 -11.46875 17.96875 -11.46875 L 7.796875 -11.46875 L 7.796875 -2.28125 C 7.796875 -0.5625 7.007812 0.296875 5.4375 0.296875 Z M 5.4375 0.296875 "/></g></g></g><g fill="#222222" fill-opacity="1"><g transform="translate(113.247433, 218.625161)"><g><path d="M 3.1875 0.296875 C 2.300781 0.296875 1.664062 -0.00390625 1.28125 -0.609375 C 0.90625 -1.210938 0.921875 -1.945312 1.328125 -2.8125 L 11.359375 -25.046875 C 11.691406 -25.773438 12.09375 -26.296875 12.5625 -26.609375 C 13.03125 -26.929688 13.566406 -27.09375 14.171875 -27.09375 C 14.753906 -27.09375 15.28125 -26.929688 15.75 -26.609375 C 16.21875 -26.296875 16.617188 -25.773438 16.953125 -25.046875 L 27.015625 -2.8125 C 27.421875 -1.925781 27.445312 -1.1875 27.09375 -0.59375 C 26.738281 0 26.128906 0.296875 25.265625 0.296875 C 24.554688 0.296875 24.003906 0.128906 23.609375 -0.203125 C 23.222656 -0.546875 22.878906 -1.070312 22.578125 -1.78125 L 20.671875 -6.1875 L 7.59375 -6.1875 L 5.734375 -1.78125 C 5.410156 -1.050781 5.070312 -0.519531 4.71875 -0.1875 C 4.363281 0.132812 3.851562 0.296875 3.1875 0.296875 Z M 14.09375 -21.515625 L 9.265625 -10.0625 L 19 -10.0625 L 14.171875 -21.515625 Z M 14.09375 -21.515625 "/></g></g></g><g fill="#222222" fill-opacity="1"><g transform="translate(147.137666, 218.625161)"><g><path d="M 5.515625 0 C 3.785156 0 2.921875 -0.859375 2.921875 -2.578125 L 2.921875 -24.203125 C 2.921875 -25.929688 3.785156 -26.796875 5.515625 -26.796875 L 14.625 -26.796875 C 17.4375 -26.796875 19.613281 -26.179688 21.15625 -24.953125 C 22.707031 -23.722656 23.484375 -22.019531 23.484375 -19.84375 C 23.484375 -18.394531 23.113281 -17.148438 22.375 -16.109375 C 21.644531 -15.066406 20.632812 -14.304688 19.34375 -13.828125 C 20.863281 -13.398438 22.046875 -12.644531 22.890625 -11.5625 C 23.742188 -10.488281 24.171875 -9.128906 24.171875 -7.484375 C 24.171875 -5.097656 23.363281 -3.253906 21.75 -1.953125 C 20.144531 -0.648438 17.910156 0 15.046875 0 Z M 7.59375 -15.421875 L 13.796875 -15.421875 C 17.109375 -15.421875 18.765625 -16.703125 18.765625 -19.265625 C 18.765625 -21.828125 17.109375 -23.109375 13.796875 -23.109375 L 7.59375 -23.109375 Z M 7.59375 -3.6875 L 14.4375 -3.6875 C 17.78125 -3.6875 19.453125 -5.03125 19.453125 -7.71875 C 19.453125 -10.394531 17.78125 -11.734375 14.4375 -11.734375 L 7.59375 -11.734375 Z M 7.59375 -3.6875 "/></g></g></g><g fill="#222222" fill-opacity="1"><g transform="translate(178.900329, 218.625161)"><g><path d="M 15.390625 0.375 C 12.597656 0.375 10.207031 -0.1875 8.21875 -1.3125 C 6.238281 -2.4375 4.710938 -4.03125 3.640625 -6.09375 C 2.578125 -8.164062 2.046875 -10.601562 2.046875 -13.40625 C 2.046875 -16.21875 2.578125 -18.648438 3.640625 -20.703125 C 4.710938 -22.753906 6.238281 -24.34375 8.21875 -25.46875 C 10.207031 -26.601562 12.597656 -27.171875 15.390625 -27.171875 C 16.785156 -27.171875 18.15625 -26.992188 19.5 -26.640625 C 20.84375 -26.285156 22.019531 -25.78125 23.03125 -25.125 C 23.6875 -24.6875 24.078125 -24.171875 24.203125 -23.578125 C 24.328125 -22.984375 24.25 -22.4375 23.96875 -21.9375 C 23.695312 -21.445312 23.28125 -21.117188 22.71875 -20.953125 C 22.164062 -20.785156 21.546875 -20.929688 20.859375 -21.390625 C 20.078125 -21.898438 19.226562 -22.269531 18.3125 -22.5 C 17.40625 -22.726562 16.484375 -22.84375 15.546875 -22.84375 C 12.828125 -22.84375 10.757812 -22.023438 9.34375 -20.390625 C 7.925781 -18.753906 7.21875 -16.425781 7.21875 -13.40625 C 7.21875 -10.394531 7.925781 -8.066406 9.34375 -6.421875 C 10.757812 -4.773438 12.828125 -3.953125 15.546875 -3.953125 C 16.503906 -3.953125 17.453125 -4.070312 18.390625 -4.3125 C 19.328125 -4.550781 20.210938 -4.925781 21.046875 -5.4375 C 21.734375 -5.863281 22.34375 -6 22.875 -5.84375 C 23.40625 -5.695312 23.800781 -5.390625 24.0625 -4.921875 C 24.332031 -4.453125 24.414062 -3.9375 24.3125 -3.375 C 24.21875 -2.820312 23.878906 -2.332031 23.296875 -1.90625 C 22.285156 -1.164062 21.078125 -0.597656 19.671875 -0.203125 C 18.265625 0.179688 16.835938 0.375 15.390625 0.375 Z M 15.390625 0.375 "/></g></g></g><g fill="#222222" fill-opacity="1"><g transform="translate(210.35906, 218.625161)"><g><path d="M 3.1875 0.296875 C 2.300781 0.296875 1.664062 -0.00390625 1.28125 -0.609375 C 0.90625 -1.210938 0.921875 -1.945312 1.328125 -2.8125 L 11.359375 -25.046875 C 11.691406 -25.773438 12.09375 -26.296875 12.5625 -26.609375 C 13.03125 -26.929688 13.566406 -27.09375 14.171875 -27.09375 C 14.753906 -27.09375 15.28125 -26.929688 15.75 -26.609375 C 16.21875 -26.296875 16.617188 -25.773438 16.953125 -25.046875 L 27.015625 -2.8125 C 27.421875 -1.925781 27.445312 -1.1875 27.09375 -0.59375 C 26.738281 0 26.128906 0.296875 25.265625 0.296875 C 24.554688 0.296875 24.003906 0.128906 23.609375 -0.203125 C 23.222656 -0.546875 22.878906 -1.070312 22.578125 -1.78125 L 20.671875 -6.1875 L 7.59375 -6.1875 L 5.734375 -1.78125 C 5.410156 -1.050781 5.070312 -0.519531 4.71875 -0.1875 C 4.363281 0.132812 3.851562 0.296875 3.1875 0.296875 Z M 14.09375 -21.515625 L 9.265625 -10.0625 L 19 -10.0625 L 14.171875 -21.515625 Z M 14.09375 -21.515625 "/></g></g></g><g fill="#222222" fill-opacity="1"><g transform="translate(244.249294, 218.625161)"><g><path d="M 5.515625 0 C 3.785156 0 2.921875 -0.859375 2.921875 -2.578125 L 2.921875 -24.203125 C 2.921875 -25.929688 3.785156 -26.796875 5.515625 -26.796875 L 14.625 -26.796875 C 17.4375 -26.796875 19.613281 -26.179688 21.15625 -24.953125 C 22.707031 -23.722656 23.484375 -22.019531 23.484375 -19.84375 C 23.484375 -18.394531 23.113281 -17.148438 22.375 -16.109375 C 21.644531 -15.066406 20.632812 -14.304688 19.34375 -13.828125 C 20.863281 -13.398438 22.046875 -12.644531 22.890625 -11.5625 C 23.742188 -10.488281 24.171875 -9.128906 24.171875 -7.484375 C 24.171875 -5.097656 23.363281 -3.253906 21.75 -1.953125 C 20.144531 -0.648438 17.910156 0 15.046875 0 Z M 7.59375 -15.421875 L 13.796875 -15.421875 C 17.109375 -15.421875 18.765625 -16.703125 18.765625 -19.265625 C 18.765625 -21.828125 17.109375 -23.109375 13.796875 -23.109375 L 7.59375 -23.109375 Z M 7.59375 -3.6875 L 14.4375 -3.6875 C 17.78125 -3.6875 19.453125 -5.03125 19.453125 -7.71875 C 19.453125 -10.394531 17.78125 -11.734375 14.4375 -11.734375 L 7.59375 -11.734375 Z M 7.59375 -3.6875 "/></g></g></g><g fill="#222222" fill-opacity="1"><g transform="translate(126.749996, 241.457034)"><g><path d="M 0.859375 -4.75 L 0.859375 -5.515625 L 5.265625 -5.515625 L 5.265625 -4.75 Z M 0.859375 -4.75 "/></g></g></g><g fill="#222222" fill-opacity="1"><g transform="translate(132.862514, 241.457034)"><g><path d="M 9.9375 -13.5625 L 10.96875 -13.5625 L 5.890625 0 L 5.0625 0 L 0 -13.5625 L 1.015625 -13.5625 L 4.421875 -4.328125 C 4.941406 -2.941406 5.289062 -1.898438 5.46875 -1.203125 C 5.59375 -1.660156 5.835938 -2.378906 6.203125 -3.359375 Z M 9.9375 -13.5625 "/></g></g></g><g fill="#222222" fill-opacity="1"><g transform="translate(143.826079, 241.457034)"><g><path d="M 5.453125 0 L 4.5 0 L 4.5 -12.671875 L 0.09375 -12.671875 L 0.09375 -13.5625 L 9.859375 -13.5625 L 9.859375 -12.671875 L 5.453125 -12.671875 Z M 5.453125 0 "/></g></g></g><g fill="#222222" fill-opacity="1"><g transform="translate(153.778628, 241.457034)"><g><path d="M 7.703125 -12.90625 C 6.003906 -12.90625 4.664062 -12.359375 3.6875 -11.265625 C 2.71875 -10.179688 2.234375 -8.691406 2.234375 -6.796875 C 2.234375 -4.859375 2.691406 -3.351562 3.609375 -2.28125 C 4.523438 -1.21875 5.84375 -0.6875 7.5625 -0.6875 C 8.695312 -0.6875 9.742188 -0.832031 10.703125 -1.125 L 10.703125 -0.28125 C 9.804688 0.03125 8.6875 0.1875 7.34375 0.1875 C 5.4375 0.1875 3.9375 -0.425781 2.84375 -1.65625 C 1.75 -2.882812 1.203125 -4.601562 1.203125 -6.8125 C 1.203125 -8.195312 1.460938 -9.414062 1.984375 -10.46875 C 2.503906 -11.519531 3.253906 -12.332031 4.234375 -12.90625 C 5.210938 -13.476562 6.351562 -13.765625 7.65625 -13.765625 C 8.976562 -13.765625 10.160156 -13.515625 11.203125 -13.015625 L 10.828125 -12.15625 C 9.835938 -12.65625 8.796875 -12.90625 7.703125 -12.90625 Z M 7.703125 -12.90625 "/></g></g></g><g fill="#222222" fill-opacity="1"><g transform="translate(165.576982, 241.457034)"><g/></g></g><g fill="#222222" fill-opacity="1"><g transform="translate(170.511514, 241.457034)"><g><path d="M 2.859375 -5.90625 L 2.859375 0 L 1.921875 0 L 1.921875 -13.5625 L 5.15625 -13.5625 C 6.832031 -13.5625 8.070312 -13.25 8.875 -12.625 C 9.675781 -12.007812 10.078125 -11.078125 10.078125 -9.828125 C 10.078125 -8.921875 9.835938 -8.15625 9.359375 -7.53125 C 8.878906 -6.90625 8.15625 -6.453125 7.1875 -6.171875 L 10.859375 0 L 9.734375 0 L 6.234375 -5.90625 Z M 2.859375 -6.71875 L 5.453125 -6.71875 C 6.597656 -6.71875 7.484375 -6.972656 8.109375 -7.484375 C 8.742188 -7.992188 9.0625 -8.75 9.0625 -9.75 C 9.0625 -10.78125 8.75 -11.53125 8.125 -12 C 7.507812 -12.46875 6.503906 -12.703125 5.109375 -12.703125 L 2.859375 -12.703125 Z M 2.859375 -6.71875 "/></g></g></g><g fill="#222222" fill-opacity="1"><g transform="translate(181.799725, 241.457034)"><g><path d="M 9.328125 0 L 1.921875 0 L 1.921875 -13.5625 L 9.328125 -13.5625 L 9.328125 -12.6875 L 2.859375 -12.6875 L 2.859375 -7.5625 L 8.96875 -7.5625 L 8.96875 -6.6875 L 2.859375 -6.6875 L 2.859375 -0.875 L 9.328125 -0.875 Z M 9.328125 0 "/></g></g></g><g fill="#222222" fill-opacity="1"><g transform="translate(192.280967, 241.457034)"><g><path d="M 1.921875 0 L 1.921875 -13.5625 L 2.859375 -13.5625 L 2.859375 0 Z M 1.921875 0 "/></g></g></g><g fill="#222222" fill-opacity="1"><g transform="translate(197.067092, 241.457034)"><g><path d="M 7.890625 0 L 2.828125 -12.53125 L 2.75 -12.53125 C 2.800781 -11.757812 2.828125 -10.972656 2.828125 -10.171875 L 2.828125 0 L 1.921875 0 L 1.921875 -13.5625 L 3.390625 -13.5625 L 8.1875 -1.640625 L 8.25 -1.640625 L 13.046875 -13.5625 L 14.484375 -13.5625 L 14.484375 0 L 13.53125 0 L 13.53125 -10.28125 C 13.53125 -11 13.566406 -11.738281 13.640625 -12.5 L 13.5625 -12.5 L 8.484375 0 Z M 7.890625 0 "/></g></g></g><g fill="#222222" fill-opacity="1"><g transform="translate(213.456793, 241.457034)"><g><path d="M 9.40625 -3.5 C 9.40625 -2.363281 8.988281 -1.460938 8.15625 -0.796875 C 7.320312 -0.140625 6.21875 0.1875 4.84375 0.1875 C 3.1875 0.1875 1.914062 0.00390625 1.03125 -0.359375 L 1.03125 -1.3125 C 2.007812 -0.894531 3.253906 -0.6875 4.765625 -0.6875 C 5.878906 -0.6875 6.757812 -0.941406 7.40625 -1.453125 C 8.0625 -1.960938 8.390625 -2.628906 8.390625 -3.453125 C 8.390625 -3.972656 8.28125 -4.398438 8.0625 -4.734375 C 7.851562 -5.066406 7.503906 -5.375 7.015625 -5.65625 C 6.523438 -5.9375 5.804688 -6.238281 4.859375 -6.5625 C 3.472656 -7.039062 2.515625 -7.554688 1.984375 -8.109375 C 1.460938 -8.660156 1.203125 -9.394531 1.203125 -10.3125 C 1.203125 -11.332031 1.597656 -12.160156 2.390625 -12.796875 C 3.179688 -13.441406 4.203125 -13.765625 5.453125 -13.765625 C 6.722656 -13.765625 7.921875 -13.519531 9.046875 -13.03125 L 8.703125 -12.21875 C 7.578125 -12.6875 6.5 -12.921875 5.46875 -12.921875 C 4.46875 -12.921875 3.671875 -12.6875 3.078125 -12.21875 C 2.484375 -11.757812 2.1875 -11.128906 2.1875 -10.328125 C 2.1875 -9.828125 2.273438 -9.414062 2.453125 -9.09375 C 2.640625 -8.78125 2.941406 -8.492188 3.359375 -8.234375 C 3.773438 -7.972656 4.488281 -7.664062 5.5 -7.3125 C 6.550781 -6.945312 7.34375 -6.59375 7.875 -6.25 C 8.40625 -5.90625 8.789062 -5.515625 9.03125 -5.078125 C 9.28125 -4.640625 9.40625 -4.113281 9.40625 -3.5 Z M 9.40625 -3.5 "/></g></g></g><g fill="#222222" fill-opacity="1"><g transform="translate(223.808179, 241.457034)"><g><path d="M 0.859375 -4.75 L 0.859375 -5.515625 L 5.265625 -5.515625 L 5.265625 -4.75 Z M 0.859375 -4.75 "/></g></g></g></svg>